PathFileType	4	(X/Y/Z)	C:\Users\Basilio\Documents\Thesis Gigler\squatting_fais\c3dfiles\077\SLS_back_pre3\markers_experimental.trc
DataRate	CameraRate	NumFrames	NumMarkers	Units	OrigDataRate	OrigDataStartFrame	OrigNumFrames
200.000000	200.000000	4	60	mm	200.000000	613	1636
Frame#	Time	FHD			LBHD			RBHD			C7			T10			CLAV			LSHO			LUUPA			LMUPA			LDUPA			LLEP			LMEP			LRAD			LUL			LRFIN			RSHO			RUPA1			RMUPA			RDUPA			RLEP			RMEP			RRAD			RUL			RUFIN			LASI			RASI			USACR			LSACR			RSACR			LTHI1			LTHI2			LTHI3			LTHI4			LLFC			LMFC			LTIB1			LTIB2			LTIB3			LTIB4			LLMAL			LHEE			LMT1			LMT2			LMT5			RTHI			RTHI2			RTHI3			RTHI4			RLFC			RMFC			RTIB1			RTIB2			RTIB3			RTIB4			RLMAL			RMMAL			RHEE			RMT1			RMT2			RMT5			
		X1	Y1	Z1	X2	Y2	Z2	X3	Y3	Z3	X4	Y4	Z4	X5	Y5	Z5	X6	Y6	Z6	X7	Y7	Z7	X8	Y8	Z8	X9	Y9	Z9	X10	Y10	Z10	X11	Y11	Z11	X12	Y12	Z12	X13	Y13	Z13	X14	Y14	Z14	X15	Y15	Z15	X16	Y16	Z16	X17	Y17	Z17	X18	Y18	Z18	X19	Y19	Z19	X20	Y20	Z20	X21	Y21	Z21	X22	Y22	Z22	X23	Y23	Z23	X24	Y24	Z24	X25	Y25	Z25	X26	Y26	Z26	X27	Y27	Z27	X28	Y28	Z28	X29	Y29	Z29	X30	Y30	Z30	X31	Y31	Z31	X32	Y32	Z32	X33	Y33	Z33	X34	Y34	Z34	X35	Y35	Z35	X36	Y36	Z36	X37	Y37	Z37	X38	Y38	Z38	X39	Y39	Z39	X40	Y40	Z40	X41	Y41	Z41	X42	Y42	Z42	X43	Y43	Z43	X44	Y44	Z44	X45	Y45	Z45	X46	Y46	Z46	X47	Y47	Z47	X48	Y48	Z48	X49	Y49	Z49	X50	Y50	Z50	X51	Y51	Z51	X52	Y52	Z52	X53	Y53	Z53	X54	Y54	Z54	X55	Y55	Z55	X56	Y56	Z56	X57	Y57	Z57	X58	Y58	Z58	X59	Y59	Z59	X60	Y60	Z60	

614	3.065	-234.6502380371094	1803.532348632813	-1091.269287109375	-370.9140930175782	1685.254516601563	-1153.874389648438	-372.5013122558594	1685.246459960938	-1007.269958496094	-416.2494506835939	1546.495239257813	-1086.873168945313	-439.0682983398439	1217.992553710938	-1069.860717773438	-253.3130035400391	1497.259155273438	-1082.458374023438	-285.5426025390626	1534.437255859375	-1254.2861328125	-127.85546875	1486.15478515625	-1371.356567382813	-96.91481781005862	1518.48974609375	-1349.568725585938	-60.22983551025392	1485.747192382813	-1385.306396484375	3.449170112609864	1497.022705078125	-1388.04248046875	14.09992408752442	1428.943359375	-1359.993530273438	304.5375671386719	1539.01904296875	-1299.705810546875	301.9639587402344	1539.309814453125	-1380.136352539063	400.8574218750001	1564.116088867188	-1317.214111328125	-277.2913513183594	1540.482055664063	-919.647155761719	-127.5036773681641	1502.308349609375	-802.3593750000002	-99.32435607910159	1528.831176757813	-833.3779296875002	-57.8044776916504	1502.79833984375	-796.5473632812502	8.30369281768799	1509.13916015625	-803.493591308594	13.21948432922364	1435.325073242188	-829.665466308594	294.2145385742188	1529.78759765625	-896.3201904296877	303.9364318847657	1541.090087890625	-817.276062011719	388.7926635742189	1555.442993164063	-896.8350219726565	-267.9595336914063	1000.248046875	-1187.068359375	-287.1528625488282	1022.14013671875	-908.9199829101565	-462.0200500488282	1127.569213867188	-1065.010620117188	-471.3097534179689	1098.086303710938	-1094.311645507813	-479.0560302734376	1097.1611328125	-1038.473876953125	-283.5647888183594	794.8312988281252	-1236.644287109375	-230.4187316894532	728.8910522460939	-1227.00146484375	-185.1351623535157	745.4149169921876	-1220.08447265625	-243.1888122558594	671.4790039062501	-1209.779174804688	-178.2782745361328	539.9865112304689	-1169.655151367188	-180.7021484375	537.4068603515626	-1039.680053710938	-202.5637207031251	327.6347961425782	-1069.273681640625	-238.9248962402344	281.3245239257813	-1137.635620117188	-213.2251434326172	276.2607421875001	-1098.154296875	-245.6293640136719	210.0378112792969	-1057.629760742188	-332.4223632812501	105.650146484375	-1098.386108398438	-397.3357543945314	79.17391204833986	-1043.183715820313	-183.1230010986328	59.29518890380861	-1061.73974609375	-191.9169921875	45.30031967163087	-1110.335815429688	-307.9148559570313	123.0752487182617	-1012.125549316406	-283.5400085449219	720.6976318359376	-819.0159912109377	-225.6383361816407	681.7871093750001	-812.9318847656252	-194.3031005859376	692.3304443359376	-817.957702636719	-233.1615905761719	599.7999877929689	-823.4323730468752	-239.9539031982422	563.5932617187501	-829.453063964844	-211.3449249267579	533.3723144531251	-955.4689941406252	-344.1266479492188	495.2380981445314	-878.3215332031252	-432.9675903320314	552.9191894531251	-863.5220336914065	-429.8893127441407	511.3221435546876	-884.3330078125002	-461.9395446777345	505.6938476562501	-934.8348388671877	-648.0022583007814	564.0791625976564	-935.3026123046877	-617.3895263671876	541.0195312500001	-1020.233703613281	-662.4967651367189	632.5993041992189	-992.2906494140627	-701.6560668945314	412.1328735351564	-1020.865356445313	-712.7316284179689	411.2725219726564	-983.2078247070315	-746.1917114257814	428.0001831054689	-942.588073730469	
615	3.07	-234.2659149169922	1802.27978515625	-1091.24609375	-370.5589294433594	1684.494140625	-1153.7314453125	-372.1408081054688	1683.388061523438	-1006.985229492188	-416.075164794922	1545.102661132813	-1086.8662109375	-439.2178955078126	1217.067504882813	-1069.897338867188	-253.1030426025391	1495.790283203125	-1082.44775390625	-285.3251647949219	1533.451293945313	-1254.191650390625	-127.8953552246094	1484.915893554688	-1371.370239257813	-96.73294830322268	1517.254516601563	-1349.372802734375	-59.94282913208009	1484.640258789063	-1385.108032226563	3.954457998275758	1495.540283203125	-1387.801635742188	14.12837982177735	1427.621704101563	-1359.943481445313	304.8574829101563	1537.756713867188	-1299.513916015625	301.7947998046876	1538.025634765625	-1379.983032226563	400.8079223632814	1562.740844726563	-1316.949829101563	-276.6066894531251	1539.307495117188	-919.5671997070315	-127.2692108154297	1500.852172851563	-802.310729980469	-98.93311309814456	1527.828857421875	-833.2515869140627	-57.52251434326173	1501.734619140625	-796.6362304687502	8.494585037231447	1507.814086914063	-803.4380493164065	13.56018924713135	1434.16357421875	-829.721374511719	294.1683654785157	1530.40966796875	-896.6055297851565	304.1704711914063	1540.189575195313	-817.320251464844	388.9749145507814	1554.788818359375	-896.7066650390627	-268.2945556640626	999.0486450195315	-1187.477661132813	-287.8489074707032	1020.597045898438	-908.9021606445315	-462.3170776367189	1126.673828125	-1065.185424804688	-471.7705993652345	1097.353271484375	-1094.522827148438	-479.4910583496095	1096.202880859375	-1038.73486328125	-283.1788330078126	794.2950439453127	-1236.785400390625	-230.0210571289063	728.4289550781251	-1226.903442382813	-185.5536499023438	745.5900878906251	-1220.349853515625	-242.8431701660157	671.0050659179689	-1209.842163085938	-177.7654266357422	539.6243286132814	-1169.556030273438	-179.5574035644532	537.2240600585939	-1039.328491210938	-201.9899444580079	327.6191711425782	-1068.9912109375	-238.7080688476563	281.3929748535157	-1137.51123046875	-212.8919219970704	276.0882263183594	-1098.053588867188	-245.4082794189454	209.8393096923829	-1057.265502929688	-332.1460266113282	105.5625152587891	-1098.343994140625	-397.3237915039064	79.00813293457033	-1043.14892578125	-183.2339019775391	59.41537857055665	-1061.74658203125	-191.745834350586	45.24066543579102	-1110.253540039063	-307.9624023437501	122.9108963012696	-1012.002014160156	-285.0690307617188	719.0377807617189	-819.330993652344	-227.2828826904297	680.5418701171876	-813.0925903320315	-195.7726440429688	690.5937500000001	-818.048278808594	-235.1282348632813	598.0565185546876	-823.8728027343752	-241.8524932861329	561.9629516601564	-829.905944824219	-213.1964569091797	531.7605590820314	-955.8964843750002	-346.5445861816407	493.9249572753907	-879.018737792969	-434.8916625976564	551.6593627929689	-864.3646240234377	-431.9489746093751	510.1859741210939	-884.9326782226565	-463.3771972656251	504.609344482422	-935.5377197265627	-649.9467163085939	563.5228881835939	-936.2766113281252	-618.9642333984376	540.4334106445314	-1021.034729003906	-664.2864379882814	632.3013305664064	-993.4592895507815	-703.7978515625001	411.883758544922	-1021.87451171875	-714.7885742187501	411.3614807128907	-983.8779296875002	-748.4233398437501	427.861053466797	-943.670593261719	
616	3.075	-233.6921844482422	1801.373657226563	-1091.153564453125	-369.8978271484376	1682.660766601563	-1153.633178710938	-371.6328125000001	1682.253295898438	-1006.892578125	-415.470184326172	1544.171630859375	-1086.7353515625	-439.6020812988282	1215.985229492188	-1069.826293945313	-252.7046356201172	1494.683471679688	-1082.38134765625	-285.4175109863282	1532.190063476563	-1254.194702148438	-127.1993637084961	1483.435791015625	-1371.05810546875	-96.72379302978518	1516.022094726563	-1349.4130859375	-60.49587631225587	1483.458251953125	-1385.328735351563	3.864217281341554	1494.140258789063	-1387.685546875	14.44544124603272	1426.246337890625	-1359.76611328125	305.0958862304688	1536.516357421875	-1299.357299804688	302.2531433105469	1536.708862304688	-1379.762817382813	402.3109741210939	1561.810913085938	-1316.980590820313	-276.3765563964844	1538.15380859375	-919.690612792969	-126.834831237793	1499.979125976563	-802.207946777344	-98.6425476074219	1526.717041015625	-833.2172851562502	-57.09409713745119	1500.604370117188	-796.4766845703127	8.893877029418947	1506.65380859375	-803.341003417969	13.96370697021485	1433.121337890625	-829.5250244140627	294.5121154785157	1529.431518554688	-896.6467285156252	304.5328979492188	1539.329345703125	-817.2371215820315	389.3055114746095	1554.036987304688	-896.6126708984377	-268.7992858886719	998.1243896484377	-1187.466186523438	-288.3859252929688	1019.396484375	-908.7837524414065	-462.7956848144532	1125.483642578125	-1065.256591796875	-472.153778076172	1096.462036132813	-1094.740600585938	-479.9547424316407	1095.274536132813	-1038.9345703125	-282.2916564941407	793.3811645507815	-1236.78955078125	-229.4945373535157	727.9329223632814	-1226.823974609375	-185.2688293457032	745.2650146484376	-1220.250610351563	-241.8036041259766	670.2264404296876	-1209.837768554688	-176.7804565429688	539.3192138671876	-1169.341064453125	-178.9007873535157	536.5617065429689	-1039.162353515625	-201.4296112060547	327.3924255371094	-1068.613525390625	-238.3091125488282	281.0541687011719	-1137.298950195313	-212.5263061523438	275.8960266113282	-1097.948852539063	-245.2519836425782	209.5013580322266	-1057.049194335938	-332.0520629882813	105.5344772338867	-1098.22412109375	-397.3119506835939	78.97075653076173	-1043.1318359375	-183.174545288086	59.38765716552736	-1061.582763671875	-191.7760772705078	45.35261917114259	-1110.252075195313	-307.9170837402344	122.8063278198242	-1011.848937988281	-286.7135620117188	717.5361938476564	-819.7283325195315	-229.0369873046876	678.4390258789064	-813.5407714843752	-197.5906524658204	688.7675781250001	-818.5234375000002	-236.8495635986329	596.2527465820314	-824.2441406250002	-243.8146362304688	560.2205810546876	-830.3958129882815	-216.2869873046876	529.4091796875001	-955.174255371094	-348.3764343261719	492.3366699218751	-879.6690673828127	-436.6819458007814	550.6895141601564	-864.9892578125002	-434.0224914550782	509.0919189453126	-885.6781005859377	-465.7788391113282	503.5969543457032	-936.545349121094	-651.5417480468751	563.0390625000001	-937.248962402344	-620.7993774414064	539.6648559570314	-1022.069946289063	-665.5200195312501	631.7695312500001	-994.2517089843752	-706.0098266601564	411.6631774902345	-1022.988342285156	-717.0452880859376	410.9715270996095	-985.687683105469	-750.5272827148439	427.6931762695314	-944.7149658203127	
617	3.08	-233.2629547119141	1800.067993164063	-1091.1337890625	-369.7660217285157	1681.804565429688	-1153.557861328125	-371.0713195800782	1680.940795898438	-1006.677551269531	-415.1112670898439	1543.443969726563	-1086.6953125	-439.6829528808595	1215.0859375	-1069.7978515625	-252.4556427001954	1493.290771484375	-1082.39599609375	-284.7214355468751	1530.92333984375	-1253.97998046875	-126.9997177124024	1482.316772460938	-1371.108032226563	-96.23880767822268	1514.839477539063	-1349.302368164063	-59.84249877929689	1482.13134765625	-1385.099853515625	4.143638134002686	1492.989501953125	-1387.681396484375	14.73905277252198	1425.317016601563	-1359.870361328125	305.2604980468751	1535.185180664063	-1299.185668945313	302.3457336425782	1535.342529296875	-1379.596557617188	401.0576782226564	1559.8955078125	-1316.576416015625	-275.8793334960938	1536.856811523438	-919.6647949218752	-126.5965042114258	1498.47998046875	-802.3162841796877	-98.26573181152347	1525.716674804688	-833.1518554687502	-56.76361465454103	1499.366821289063	-796.4793090820315	9.159606933593752	1505.588500976563	-803.4110107421877	14.29315567016602	1432.013916015625	-829.6016845703127	294.7402038574219	1528.332763671875	-896.4324340820315	304.7964477539063	1538.341552734375	-817.3293457031252	389.4916076660157	1553.16064453125	-896.5113525390627	-267.6349792480469	996.6728515625002	-1188.136962890625	-289.3238830566407	1017.587097167969	-908.8215332031252	-462.9156188964845	1124.729248046875	-1065.473388671875	-472.2212829589845	1095.554443359375	-1094.942016601563	-480.5644531250001	1094.192749023438	-1039.2041015625	-281.8141784667969	792.3540649414065	-1236.880493164063	-228.9505462646485	727.5881347656251	-1226.786743164063	-184.1980895996094	744.5449829101564	-1219.6494140625	-241.0870056152344	669.5119018554689	-1209.832397460938	-175.8171997070313	538.7785034179689	-1169.046630859375	-178.0424346923828	536.0277099609376	-1038.930786132813	-201.0325622558594	326.8339843750001	-1068.343994140625	-237.7518310546876	280.9320068359376	-1136.976440429688	-212.2773437500001	275.5972290039063	-1097.9677734375	-245.0996398925782	209.3416442871094	-1056.819580078125	-333.2416687011719	106.1272811889649	-1098.315307617188	-397.3408508300782	78.94410705566408	-1043.034545898438	-183.1729736328125	59.19240570068361	-1061.498901367188	-191.7521667480469	45.41200256347657	-1110.204833984375	-307.9328308105469	122.6908645629883	-1011.763427734375	-288.1983947753907	715.8350830078126	-820.1358642578127	-230.4321746826172	677.1117553710939	-813.8269042968752	-199.1805114746094	686.9677124023439	-818.5567626953127	-238.8438110351563	594.4287719726564	-824.741149902344	-245.7322082519532	558.6005249023439	-830.9119262695315	-216.8221740722657	528.2120971679689	-957.0266113281252	-350.4820251464844	490.9184570312501	-880.3233642578127	-438.6293945312501	549.6213378906251	-865.7879028320315	-435.9624938964845	508.1276245117189	-886.4626464843752	-467.5199279785157	502.5544433593751	-937.2100219726565	-653.3659057617189	562.5501708984376	-938.1916503906252	-622.2971191406251	539.2116088867189	-1023.044738769531	-667.2921752929689	631.5303955078126	-995.4448852539065	-708.2370605468751	411.3882141113282	-1024.010620117188	-719.3375244140626	410.8677978515626	-986.625915527344	-752.7213745117189	427.5424804687501	-945.8618774414065	
